# AST/ASF file generated using VICON BodyLanguage
# -----------------------------------------------
:version 1.10
:name VICON
:units
  mass 1.0
  length 0.45
  angle deg
:documentation
   .ast/.asf automatically generated from VICON data using
   VICON BodyBuilder and BodyLanguage model FoxedUp or BRILLIANT.MOD
:root
   order TX TY TZ RX RY RZ
   axis XYZ
   position 0 0 0  
   orientation 0 -0 0 
:bonedata
  begin
     id 1 
     name lhipjoint
     direction 0.432694 -0.693742 0.575759 
     length 2.19277 
     axis 0 -0 0  XYZ
  end
  begin
     id 2 
     name lfemur
     direction 0.34202 -0.939693 0  
     length 6.69022  
     axis 0 -0 20  XYZ
    dof rx ry rz
    limits (-160.0 20.0)
           (-70.0 70.0)
           (-60.0 70.0)
  end
  begin
     id 3 
     name ltibia
     direction 0.34202 -0.939693 0   
     length 6.50337   
     axis 0 -0 20   XYZ
    dof rx
    limits (-10.0 170.0)
  end
  begin
     id 4 
     name lfoot
     direction 0.158999 -0.435969 0.885805   
     length 2.70564   
     axis -90 -1.13533e-015 20   XYZ
    dof rx rz
    limits (-45.0 90.0)
           (-70.0 20.0)
  end
  begin
     id 5 
     name ltoes
     direction -0.00592919 0.00964381 0.999936   
     length 1.29929   
     axis -90 -1.13533e-015 20   XYZ
    dof rx
    limits (-90.0 20.0)
  end
  begin
     id 6 
     name rhipjoint
     direction -0.414359 -0.700339 0.581234   
     length 2.17212  
     axis 0 -0 0  XYZ 
  end
  begin
     id 7 
     name rfemur
     direction -0.34202 -0.939693 0   
     length 7.17659   
     axis 0 -0 -20   XYZ
    dof rx ry rz
    limits (-160.0 20.0)
           (-70.0 70.0)
           (-70.0 60.0)
  end
  begin
     id 8 
     name rtibia
     direction -0.34202 -0.939693 0   
     length 6.36669   
     axis 0 -0 -20   XYZ
    dof rx
    limits (-10.0 170.0)
 end
 begin
     id 9 
     name rfoot
     direction -0.137064 -0.37658 0.916188   
     length 2.22351  
     axis -90 1.13533e-015 -20   XYZ
    dof rx rz
    limits (-45.0 90.0)
           (-20.0 70.0)
  end
  begin
     id 10 
     name rtoes
     direction -0.000784077 -0.00289101 0.999996   
     length 1.09522   
     axis -90 1.13533e-015 -20   XYZ
    dof rx
    limits (-90.0 20.0)
  end
  begin
     id 11 
     name lowerback
     direction -0.0176242 0.984912 -0.172157   
     length 1.65301   
     axis 0 -0 0   XYZ
    dof rx ry rz
    limits (-20.0 45.0)
           (-30.0 30.0)
           (-30.0 30.0)
  end
  begin
     id 12 
     name upperback
     direction -0.00218128 0.998776 -0.0494072   
     length 1.67776   
     axis 0 -0 0   XYZ
    dof rx ry rz
    limits (-20.0 45.0)
           (-30.0 30.0)
           (-30.0 30.0)
  end
  begin
     id 13 
     name thorax
     direction 0.00544186 0.999658 0.0255711   
     length 1.72293   
     axis 0 -0 0   XYZ
    dof rx ry rz
    limits (-20.0 45.0)
           (-30.0 30.0)
           (-30.0 30.0)
  end
  begin
     id 14 
     name lowerneck
     direction -0.105325 0.983841 0.144785   
     length 2.14226   
     axis 0 -0 0   XYZ
    dof rx ry rz
    limits (-20.0 45.0)
           (-30.0 30.0)
           (-30.0 30.0)
  end
  begin
     id 15 
     name upperneck
     direction 0.0547957 0.988053 -0.144041   
     length 2.17508   
     axis 0 -0 0   XYZ
    dof rx ry rz
    limits (-20.0 45.0)
           (-30.0 30.0)
           (-30.0 30.0)
  end
  begin
     id 16
     name head
     direction 0.0247488 0.997534 -0.0656813  
     length 2.20048  
     axis 0 -0 0   XYZ
    dof rx ry rz
    limits (-20.0 45.0)
           (-30.0 30.0)
           (-30.0 30.0)
  end
  begin
     id 17 
     name lclavicle
     direction 0.820559 0.567247 -0.0701026  
     length 4.09615  
     axis 0 -0 0   XYZ
    dof ry rz
    limits (-20.0 10.0)
           (0.0 20.0)
  end
  begin
     id 18 
     name lhumerus
     direction 0.999977 -0.0067566 -9.96392e-005   
     length 4.59333   
     axis -180 -30 -90   XYZ
    dof rx ry rz
    limits (-60.0 90.0)
           (-90.0 90.0)
           (-90.0 90.0)
  end
  begin
     id 19
     name lradius
     direction 1 -4.48982e-011 -2.53425e-027   
     length 2.81151   
     axis -180 -30 -90   XYZ
    dof rx
    limits (-10.0 170.0)
  end
  begin
     id 20
     name lwrist
     direction 1 -4.48939e-011 -7.39254e-028   
     length 1.40576   
     axis 2.56395e-016 90 90   XYZ
    dof ry
    limits (-180.0 0.0)
 end
  begin
     id 21 
     name lhand
     direction 1 -4.48939e-011 -1.47851e-027   
     length 0.895651   
     axis 9.43423e-016 90 90   XYZ
    dof rx rz
    limits (-90.0 90.0)
           (-45.0 45.0)
  end
  begin
     id 22 
     name lfingers
     direction 1 -4.48978e-011 -2.95702e-027   
     length 0.722097   
     axis 1.88685e-015 90 90   XYZ
    dof rx
    limits (0.0 90.0)
  end
  begin
     id 23
     name lthumb
     direction 0.707107 -6.34931e-011 0.707107   
     length 1.03679   
     axis -90 45 -9.86935e-015   XYZ
    dof rx rz
    limits (-45.0 45.0)
           (-45.0 45.0)
  end
  begin
     id 24 
     name rclavicle
     direction -0.831414 0.553102 -0.0531864   
     length 4.24872  
     axis 0 -0 0   XYZ 
    dof ry rz
    limits (-10.0 20.0)
           (-20.0 0.0)
  end
  begin
     id 25 
     name rhumerus
     direction -0.999916 -0.000939607 0.0129331  
     length 4.74834   
     axis -180 30 90   XYZ
    dof rx ry rz
    limits (-90.0 60.0)
           (-90.0 90.0)
           (-90.0 90.0)
  end
  begin
     id 26 
     name rradius
     direction -1 -4.48956e-011 -1.31752e-027   
     length 2.79907   
     axis -180 30 90   XYZ
    dof rx
    limits (-10.0 170.0)
  end
  begin
     id 27 
     name rwrist
     direction -1 -4.4897e-011 -7.39254e-028   
     length 1.39954   
     axis 2.56395e-016 -90 -90   XYZ
    dof ry
    limits (-180.0 0.0)
  end
  begin
     id 28
     name rhand
     direction -0.999997 -0.00250697 0.000800838   
     length 0.953304   
     axis 9.43423e-016 -90 -90   XYZ
    dof rx rz
    limits (-90.0 90.0)
           (-45.0 45.0)
  end
  begin
     id 29
     name rfingers
     direction -1 -4.48954e-011 -2.95702e-027   
     length 0.763342   
     axis 1.88685e-015 -90 -90   XYZ
    dof rx
    limits (0.0 90.0)
  end
  begin
     id 30
     name rthumb
     direction -0.709701 -0.00217037 0.7045   
     length 1.10115   
     axis -90 -45 9.86935e-015   XYZ
    dof rx rz
    limits (-45.0 45.0)
           (-45.0 45.0)
  end
:hierarchy
  begin
    root lhipjoint rhipjoint lowerback
    lhipjoint lfemur
    lfemur ltibia
    ltibia lfoot
    lfoot ltoes
    rhipjoint rfemur
    rfemur rtibia
    rtibia rfoot
    rfoot rtoes
    lowerback upperback
    upperback thorax
    thorax lowerneck lclavicle rclavicle
    lowerneck upperneck
    upperneck head
    lclavicle lhumerus
    lhumerus lradius
    lradius lwrist
    lwrist lhand lthumb
    lhand lfingers
    rclavicle rhumerus
    rhumerus rradius
    rradius rwrist
    rwrist rhand rthumb
    rhand rfingers
  end

#!OML:ASF G:\ViconDB\ViconDB\414\test\team2\shane.ASF
:FULLY-SPECIFIED
:DEGREES
83
root -7.50427 16.7298 -8.93412 -9.04981 16.2183 -7.93999
lowerback 9.08967 -2.10018 -0.674913
upperback 3.85574 -2.78286 2.43958
thorax -0.937816 -1.40969 3.16818
lowerneck -17.1716 -2.6773 -9.03356
upperneck 21.1358 -3.81614 10.7195
head 9.92742 -1.2803 4.79814
rclavicle 4.79568e-015 5.56597e-015
rhumerus -47.4959 -13.0101 -72.5109
rradius 22.0712
rwrist 51.3149
rhand -26.4286 -11.2726
rfingers 7.12502
rthumb 0.131832 -41.2523
lclavicle 4.79568e-015 5.56597e-015
lhumerus -15.3841 -18.2321 93.446
lradius 36.3037
lwrist -19.3957
lhand -39.4654 5.1495
lfingers 7.12502
lthumb -12.4524 34.7585
rfemur -18.0914 -23.1934 19.8018
rtibia 28.2444
rfoot -22.7513 9.87762
rtoes -15.8431
lfemur 26.257 4.82811 -9.27394
ltibia -3.81667e-014
lfoot -17.4154 -27.7831
ltoes -10.9609
84
root -7.49914 16.7105 -8.75494 -9.07558 16.5786 -8.1097
lowerback 9.02887 -2.21296 -0.582035
upperback 3.80613 -2.92265 2.5501
thorax -0.946133 -1.47908 3.24207
lowerneck -17.2329 -2.65173 -9.21645
upperneck 21.2376 -3.75809 10.8308
head 9.97402 -1.25397 4.88249
rclavicle -1.5381e-014 -1.51076e-014
rhumerus -47.972 -13.2881 -71.8536
rradius 22.0849
rwrist 51.5081
rhand -26.2378 -10.8015
rfingers 7.12502
rthumb 0.316036 -40.7811
lclavicle -1.5381e-014 -1.51076e-014
lhumerus -15.3572 -18.3363 93.4803
lradius 37.1684
lwrist -19.0648
lhand -39.4409 4.88339
lfingers 7.12502
lthumb -12.4287 34.4939
rfemur -19.0357 -25.358 20.6415
rtibia 28.1908
rfoot -23.4065 11.7603
rtoes -16.3094
lfemur 26.8076 4.3276 -8.94793
ltibia -9.54166e-015
lfoot -17.5001 -27.8573
ltoes -11.5773
85
root -7.49622 16.6905 -8.5716 -9.06667 16.9494 -8.1499
lowerback 8.96546 -2.26262 -0.564104
upperback 3.71951 -2.98495 2.62743
thorax -0.993847 -1.50943 3.31738
lowerneck -17.12 -2.71339 -9.31958
upperneck 21.1756 -3.79674 10.736
head 9.9353 -1.29394 4.85753
rclavicle -4.84786e-014 -3.97569e-016
rhumerus -48.4033 -12.3394 -72.0987
rradius 22.2595
rwrist 50.6755
rhand -26.348 -11.126
rfingers 7.12502
rthumb 0.20964 -41.1057
lclavicle -4.84786e-014 -3.97569e-016
lhumerus -15.4716 -18.4175 93.6325
lradius 37.9012
lwrist -19.0979
lhand -39.5128 4.93839
lfingers 7.12502
lthumb -12.4981 34.5446
rfemur -19.7896 -26.9065 21.2446
rtibia 28.2075
rfoot -23.1192 13.9593
rtoes -14.4378
lfemur 27.3269 3.83403 -8.74528
ltibia -4.77083e-014
lfoot -17.4043 -27.9967
ltoes -11.8755
86
root -7.49987 16.6728 -8.38993 -8.94833 17.4559 -7.9936
lowerback 8.92033 -2.29782 -0.850416
upperback 3.58974 -3.05406 2.63647
thorax -1.08318 -1.54454 3.49568
lowerneck -16.9091 -2.65166 -9.14372
upperneck 21.0842 -3.748 10.6529
head 9.85201 -1.2715 4.7993
rclavicle -9.29318e-015 3.93594e-014
rhumerus -48.9092 -12.5509 -71.7744
rradius 22.2756
rwrist 50.5061
rhand -26.4925 -11.2477
rfingers 7.12502
rthumb 0.0700727 -41.2274
lclavicle -9.29318e-015 3.93594e-014
lhumerus -15.6178 -18.9731 93.7267
lradius 38.5161
lwrist -19.1838
lhand -39.5189 5.22193
lfingers 7.12502
lthumb -12.504 34.8278
rfemur -20.3862 -28.5566 21.6713
rtibia 28.3218
rfoot -23.1744 15.6604
rtoes -13.644
lfemur 27.7444 3.26506 -8.79937
ltibia -2.54444e-014
lfoot -17.3023 -28.0373
ltoes -12.7113
87
root -7.49264 16.6408 -8.21038 -8.98105 17.8091 -8.06275
lowerback 8.92273 -2.34755 -0.650892
upperback 3.54641 -3.10198 2.65181
thorax -1.13626 -1.56566 3.40525
lowerneck -17.0621 -2.6932 -9.21927
upperneck 21.2465 -3.79876 10.7105
head 9.94711 -1.29009 4.83285
rclavicle 5.10628e-014 -3.57812e-014
rhumerus -49.217 -12.1946 -71.8288
rradius 22.3389
rwrist 50.3846
rhand -26.5158 -11.3705
rfingers 7.12502
rthumb 0.047587 -41.3502
lclavicle 5.10628e-014 -3.57812e-014
lhumerus -15.7424 -19.2475 93.7466
lradius 39.1935
lwrist -18.8516
lhand -39.8056 4.97323
lfingers 7.12502
lthumb -12.7804 34.5621
rfemur -20.3469 -28.3651 21.9962
rtibia 28.4875
rfoot -23.2751 14.9456
rtoes -15.0584
lfemur 28.3039 2.78234 -8.58474
ltibia -1.59028e-014
lfoot -17.2403 -28.1325
ltoes -13.3627
88
root -7.49995 16.6158 -8.02575 -8.88378 18.3132 -7.91176
lowerback 8.90167 -2.40887 -1.08979
upperback 3.44247 -3.21735 2.75125
thorax -1.19391 -1.62599 3.76814
lowerneck -16.9119 -2.76125 -9.30319
upperneck 21.167 -3.86767 10.6709
head 9.89944 -1.33733 4.81999
rclavicle 2.56929e-014 -7.55382e-015
rhumerus -49.3938 -12.1352 -71.6529
rradius 22.3625
rwrist 49.7865
rhand -26.3646 -11.1248
rfingers 7.12502
rthumb 0.193625 -41.1045
lclavicle 2.56929e-014 -7.55382e-015
lhumerus -15.9488 -19.3235 93.8374
lradius 39.8661
lwrist -18.774
lhand -39.5784 4.8984
lfingers 7.12502
lthumb -12.5613 34.5008
rfemur -20.0391 -27.0679 21.8795
rtibia 28.7266
rfoot -23.0602 13.2
rtoes -14.4981
lfemur 28.7532 2.19546 -8.60167
ltibia 6.36111e-014
lfoot -17.091 -28.2054
ltoes -14.4878
89
root -7.50201 16.591 -7.83859 -8.93063 18.7952 -7.84856
lowerback 8.96571 -2.44336 -1.22469
upperback 3.367 -3.27273 2.7678
thorax -1.2944 -1.65235 3.87225
lowerneck -16.9316 -2.74667 -9.21567
upperneck 21.2846 -3.87414 10.6562
head 9.94351 -1.33346 4.80279
rclavicle -3.52843e-015 -1.11319e-014
rhumerus -49.7874 -12.95 -70.825
rradius 22.2455
rwrist 51.2388
rhand -26.5916 -11.2203
rfingers 7.12502
rthumb -0.0256443 -41.2
lclavicle -3.52843e-015 -1.11319e-014
lhumerus -16.2491 -19.4796 93.8753
lradius 40.1505
lwrist -18.997
lhand -40.055 4.78908
lfingers 7.12502
lthumb -13.0208 34.3627
rfemur -19.4793 -26.0108 21.7945
rtibia 29.0015
rfoot -22.55 11.837
rtoes -14.5221
lfemur 29.2815 1.58086 -8.49845
ltibia -1.27222e-014
lfoot -16.5506 -28.4679
ltoes -15.2042
90
root -7.4934 16.5607 -7.64714 -8.97107 19.2916 -7.97459
lowerback 8.87312 -2.58378 -0.963571
upperback 3.28458 -3.43535 2.81315
thorax -1.32954 -1.73078 3.78509
lowerneck -16.8003 -2.70969 -8.97001
upperneck 21.2487 -3.79945 10.2573
head 9.88415 -1.32636 4.62315
rclavicle 2.21893e-014 -3.57812e-015
rhumerus -49.7706 -11.7432 -71.857
rradius 22.3939
rwrist 49.0452
rhand -26.5776 -11.73
rfingers 7.12502
rthumb -0.0121512 -41.7098
lclavicle 2.21893e-014 -3.57812e-015
lhumerus -16.7107 -19.7458 93.9096
lradius 40.8093
lwrist -18.4907
lhand -40.1713 4.61423
lfingers 7.12502
lthumb -13.1329 34.1807
rfemur -18.9853 -25.469 21.9469
rtibia 29.4484
rfoot -22.0144 11.5975
rtoes -13.1065
lfemur 29.8343 0.955922 -8.27713
ltibia 1.59028e-014
lfoot -16.4223 -28.5314
ltoes -16.659
91
root -7.48667 16.5387 -7.447 -8.98582 19.776 -7.7579
lowerback 8.75554 -2.62489 -1.0977
upperback 3.25146 -3.50261 2.76591
thorax -1.28909 -1.76526 3.81189
lowerneck -16.7268 -2.81324 -9.08349
upperneck 21.2748 -3.94665 10.3603
head 9.90071 -1.3939 4.66081
rclavicle -1.31198e-014 3.85642e-014
rhumerus -50.0001 -12.3259 -71.2387
rradius 22.3148
rwrist 50.241
rhand -26.5197 -11.5204
rfingers 7.12502
rthumb 0.0437643 -41.5001
lclavicle -1.31198e-014 3.85642e-014
lhumerus -17.0964 -19.7312 93.9557
lradius 41.012
lwrist -18.9786
lhand -40.3031 4.75193
lfingers 7.12502
lthumb -13.2599 34.3101
rfemur -18.3537 -24.612 21.6666
rtibia 30.0884
rfoot -21.8988 11.1939
rtoes -12.6381
lfemur 30.4262 0.368095 -8.35799
ltibia 8.26944e-014
lfoot -15.6629 -28.7321
ltoes -17.5881
92
root -7.47339 16.5257 -7.24381 -9.16469 20.3435 -7.64123
lowerback 8.70797 -2.70627 -1.30218
upperback 3.2602 -3.6257 2.87904
thorax -1.22392 -1.83006 4.05235
lowerneck -16.7082 -2.81954 -9.26953
upperneck 21.3991 -3.89829 10.2997
head 9.93815 -1.39344 4.6815
rclavicle 5.24419e-014 -1.94809e-014
rhumerus -50.1644 -13.5711 -69.7386
rradius 21.9963
rwrist 52.3142
rhand -26.657 -10.7898
rfingers 7.12502
rthumb -0.0888103 -40.7695
lclavicle 5.24419e-014 -1.94809e-014
lhumerus -17.5154 -19.7987 94.2063
lradius 41.1922
lwrist -18.6706
lhand -40.5286 4.63706
lfingers 7.12502
lthumb -13.4773 34.181
rfemur -17.7515 -24.7556 21.4467
rtibia 30.7989
rfoot -21.4834 12.3133
rtoes -11.865
lfemur 31.1505 -0.317229 -8.42227
ltibia 7.31528e-014
lfoot -15.017 -28.8334
ltoes -19.032
